<?xml version="1.0" encoding="UTF-8"?>
<svg version="1.1" xmlns="http://www.w3.org/2000/svg" width="969" height="468">
<path d="M0 0 C0.99 0.33 1.98 0.66 3 1 C3.09704224 2.06806885 3.09704224 2.06806885 3.19604492 3.15771484 C7.8241785 52.83963634 21.20449695 98.9064971 52 139 C52.57105469 139.763125 53.14210937 140.52625 53.73046875 141.3125 C57.53426416 146.3261983 61.62661268 151.00974594 65.88671875 155.640625 C67.32293402 157.244089 68.70510299 158.89728077 70.03515625 160.58984375 C71.82306187 162.78296059 73.58313847 164.50827439 75.75 166.3125 C78.50180956 168.65254244 81.03024511 171.05382333 83.5 173.6875 C108.32418078 198.70411629 142.32611778 213.59644508 175.05932617 224.95361328 C177.73596051 225.90604622 180.37069671 226.92469367 183 228 C183.18525891 234.34326522 182.52991842 240.2549991 181.4375 246.5 C181.26404053 247.49177246 181.09058105 248.48354492 180.91186523 249.50537109 C177.97791323 265.3579155 173.3839948 281.18563398 167 296 C166.54052979 297.08063721 166.54052979 297.08063721 166.07177734 298.18310547 C159.19072771 314.2802548 151.4918625 329.92200436 141 344 C140.41089844 344.84175781 139.82179688 345.68351562 139.21484375 346.55078125 C131.18582707 357.94308213 122.01982917 368.32634535 112 378 C111.21109375 378.79148437 110.4221875 379.58296875 109.609375 380.3984375 C99.75975765 390.21856497 89.38867477 399.00475304 78 407 C77.1440625 407.60714844 76.288125 408.21429688 75.40625 408.83984375 C71.78659594 410.5850341 68.96581067 410.63033032 65.12695312 409.39941406 C62.96377319 408.54398424 60.85972058 407.60488332 58.75 406.625 C57.97148682 406.27066895 57.19297363 405.91633789 56.39086914 405.55126953 C44.46431928 400.01689099 32.68438427 393.68951898 22 386 C21.13375 385.38640625 20.2675 384.7728125 19.375 384.140625 C-5.51575279 366.30225216 -26.6607068 345.20422655 -44 320 C-44.58265625 319.154375 -45.1653125 318.30875 -45.765625 317.4375 C-47.59386255 314.66851886 -49.30657596 311.85385805 -51 309 C-51.63760254 307.93507324 -51.63760254 307.93507324 -52.28808594 306.84863281 C-64.73274845 285.82851309 -73.80036959 262.88644443 -79 239 C-79.18111328 238.18772949 -79.36222656 237.37545898 -79.54882812 236.53857422 C-80.11133353 233.98721043 -80.65453472 231.43269026 -81.1875 228.875 C-81.4203772 227.76692993 -81.4203772 227.76692993 -81.65795898 226.63647461 C-84.39746531 212.74465174 -85.38368967 198.87988256 -85.3125 184.75 C-85.31067719 183.98931213 -85.30885437 183.22862427 -85.30697632 182.44488525 C-85.2572645 170.05514606 -84.36318032 158.17929202 -82 146 C-81.63174928 143.93638736 -81.26462244 141.87257396 -80.8984375 139.80859375 C-78.57886809 127.13694272 -75.55116436 115.05034322 -71 103 C-70.55011719 101.77925781 -70.10023437 100.55851562 -69.63671875 99.30078125 C-64.06493556 84.78275462 -57.58866137 69.99659868 -49 57 C-48.40960938 56.07703125 -47.81921875 55.1540625 -47.2109375 54.203125 C-35.75899379 36.59176934 -22.18031729 20.50027417 -7 6 C-6.27296875 5.30261719 -5.5459375 4.60523438 -4.796875 3.88671875 C-2.9375 2.1875 -2.9375 2.1875 0 0 Z " fill="#FE4242" transform="translate(147,26)"/>
<path d="M0 0 C4.09221712 1.36392208 6.51423554 3.13897141 9.546875 6.18359375 C10.38774658 7.02365967 11.22861816 7.86372559 12.0949707 8.72924805 C12.97113037 9.62297119 13.84729004 10.51669434 14.75 11.4375 C16.09807739 12.80032104 16.09807739 12.80032104 17.47338867 14.19067383 C23.37119749 20.20350416 28.9235588 26.27314631 34 33 C34.61617187 33.77214844 35.23234375 34.54429688 35.8671875 35.33984375 C39.88257251 40.38061678 43.53957365 45.56545377 47 51 C47.37608398 51.57766113 47.75216797 52.15532227 48.13964844 52.75048828 C83.95942033 107.98074169 94.71706145 174.28036856 81.53662109 238.51855469 C79.64708811 247.25614031 77.19922244 255.64417842 74 264 C73.3632374 265.71482747 72.72652154 267.42967229 72.08984375 269.14453125 C60.34492549 300.31141326 43.12978021 327.98745599 20 352 C19.36255859 352.66467285 18.72511719 353.3293457 18.06835938 354.01416016 C9.23880556 363.17265002 0.39291574 371.63835135 -10 379 C-10.8353125 379.60714844 -11.670625 380.21429688 -12.53125 380.83984375 C-14.99402799 382.6029689 -17.48740093 384.30868331 -20 386 C-21.48113281 387.01126953 -21.48113281 387.01126953 -22.9921875 388.04296875 C-30.03441943 392.72398174 -37.26743347 396.87201198 -44.75 400.8125 C-45.61278564 401.26850586 -46.47557129 401.72451172 -47.36450195 402.19433594 C-64.7195478 411.18748046 -64.7195478 411.18748046 -71 410 C-73.4098177 408.60253913 -75.44434304 407.2515157 -77.625 405.5625 C-78.22820068 405.11237549 -78.83140137 404.66225098 -79.45288086 404.19848633 C-80.6984829 403.26685498 -81.93961727 402.32922118 -83.17626953 401.38574219 C-84.90430869 400.07271002 -86.64839007 398.78593503 -88.40234375 397.5078125 C-93.2961529 393.91458303 -97.74103984 390.3358872 -102 386 C-103.15349723 385.00535302 -104.31857148 384.02380387 -105.5 383.0625 C-108.77318775 380.29941943 -111.30882312 377.32856088 -114 374 C-115.65843636 372.32514347 -117.3258985 370.65919852 -119 369 C-131.78200481 355.97045637 -142.07287414 340.87092193 -151 325 C-151.33837891 324.40687012 -151.67675781 323.81374023 -152.02539062 323.20263672 C-168.525296 294.12273656 -178.9739202 261.40156597 -181 228 C-175.33601405 225.63988181 -169.64968419 223.52362096 -163.8125 221.625 C-145.02100079 215.43452501 -127.75441142 207.01393991 -111.16235352 196.22363281 C-107.86649714 194.09017191 -104.71209379 192.29852711 -101 191 C-101 190.34 -101 189.68 -101 189 C-98.59640893 187.09401561 -96.17751438 185.2867449 -93.6875 183.5 C-85.62769654 177.5871545 -77.51704018 171.50985625 -71.1875 163.6875 C-69.1742648 161.21409675 -67.07304875 159.44642394 -64.59765625 157.46484375 C-61.25553723 154.4005537 -58.70729358 150.61765823 -56 147 C-54.87659918 145.58206486 -53.7515949 144.16539867 -52.625 142.75 C-41.33199354 128.19793798 -31.87229941 112.63569545 -24 96 C-23.6073999 95.18265381 -23.2147998 94.36530762 -22.81030273 93.52319336 C-17.44146089 82.08730086 -13.78930478 70.03047313 -10 58 C-9.75830078 57.24058105 -9.51660156 56.48116211 -9.26757812 55.69873047 C-4.06471375 38.91736054 -2.70215902 20.18671262 -1.25268555 2.75341797 C-1 1 -1 1 0 0 Z " fill="#FE4242" transform="translate(817,26)"/>
<path d="M0 0 C4.09221712 1.36392208 6.51423554 3.13897141 9.546875 6.18359375 C10.38774658 7.02365967 11.22861816 7.86372559 12.0949707 8.72924805 C12.97113037 9.62297119 13.84729004 10.51669434 14.75 11.4375 C15.64871826 12.34604736 16.54743652 13.25459473 17.47338867 14.19067383 C23.37119749 20.20350416 28.9235588 26.27314631 34 33 C34.92425781 34.15822266 34.92425781 34.15822266 35.8671875 35.33984375 C39.88257251 40.38061678 43.53957365 45.56545377 47 51 C47.56412598 51.8664917 47.56412598 51.8664917 48.13964844 52.75048828 C63.64108466 76.65204335 76.64553242 103.63597212 81 132 C79.68 131.67 78.36 131.34 77 131 C76.896875 130.01 76.79375 129.02 76.6875 128 C76.19464959 124.52922243 75.11609941 121.47774853 73.8125 118.21875 C72.91116316 115.7574071 72.26752197 113.29088235 71.625 110.75 C70.26894481 105.62947912 68.41129477 100.87470008 66.3046875 96.01953125 C65.46356635 94.07286463 64.653631 92.11227805 63.8828125 90.13671875 C60.64837324 81.89447525 56.42409571 74.38252598 51.99560547 66.74169922 C50.79796666 64.64656551 49.6813001 62.51306283 48.5625 60.375 C39.69717268 44.15094175 39.69717268 44.15094175 27 32 C25.9935725 30.33720673 24.99414593 28.67016516 24 27 C23.443125 26.443125 22.88625 25.88625 22.3125 25.3125 C21.879375 24.879375 21.44625 24.44625 21 24 C21 23.34 21 22.68 21 22 C20.34 22 19.68 22 19 22 C17.5546875 20.49609375 17.5546875 20.49609375 15.875 18.4375 C9.46317572 10.81322718 9.46317572 10.81322718 1 6 C1.01160156 6.88042969 1.02320313 7.76085938 1.03515625 8.66796875 C1.04869141 10.41013672 1.04869141 10.41013672 1.0625 12.1875 C1.07410156 13.33605469 1.08570313 14.48460937 1.09765625 15.66796875 C1.01192832 18.59300586 0.67849023 21.16316291 0 24 C-0.33 24 -0.66 24 -1 24 C-1.78690105 16.27626354 -2.4776418 8.68373736 -1 1 C-0.67 0.67 -0.34 0.34 0 0 Z " fill="#FE4E4E" transform="translate(817,26)"/>
<path d="M0 0 C0.99 0.33 1.98 0.66 3 1 C3.42237886 4.43478314 3.80829229 7.87270459 4.1875 11.3125 C4.36829102 12.77719727 4.36829102 12.77719727 4.55273438 14.27148438 C4.65263672 15.20927734 4.75253906 16.14707031 4.85546875 17.11328125 C5.00471802 18.40939331 5.00471802 18.40939331 5.15698242 19.73168945 C5 22 5 22 3.5090332 23.80541992 C3.01105225 24.19963135 2.51307129 24.59384277 2 25 C0.85017398 20.90996141 0.88905744 16.96822949 0.9375 12.75 C0.94201172 12.00492188 0.94652344 11.25984375 0.95117188 10.4921875 C0.96290754 8.6614236 0.9808415 6.83070127 1 5 C-10.64628882 13.35238895 -20.25443476 23.70098505 -29 35 C-29.72703125 35.93328125 -30.4540625 36.8665625 -31.203125 37.828125 C-35.4868535 43.42992381 -39.55149397 49.15845236 -43.5 55 C-43.93368896 55.63518555 -44.36737793 56.27037109 -44.81420898 56.92480469 C-46.81969449 59.9324295 -48.2592687 62.46905286 -49 66 C-49.66 66 -50.32 66 -51 66 C-51.268125 66.886875 -51.53625 67.77375 -51.8125 68.6875 C-52.92893017 71.80175259 -54.28629712 74.18952727 -56 77 C-56.53567187 78.2437134 -57.05604906 79.49410398 -57.5625 80.75 C-59 84 -59 84 -61 85 C-61.85174333 78.64872874 -58.87609369 74.13781846 -55.9375 68.75 C-55.43307373 67.80850098 -54.92864746 66.86700195 -54.40893555 65.89697266 C-50.9942134 59.60724128 -47.35716291 53.68369963 -43 48 C-41.70737468 46.18818356 -40.41575796 44.37564724 -39.125 42.5625 C-29.56198165 29.50036957 -18.77162232 17.13531841 -7 6 C-6.38253906 5.41089844 -5.76507813 4.82179688 -5.12890625 4.21484375 C-4.50886719 3.64894531 -3.88882813 3.08304688 -3.25 2.5 C-2.69828125 1.9946875 -2.1465625 1.489375 -1.578125 0.96875 C-1.05734375 0.6490625 -0.5365625 0.329375 0 0 Z " fill="#FE5353" transform="translate(147,26)"/>
<path d="M0 0 C0.66 0 1.32 0 2 0 C2.31453125 0.58007812 2.6290625 1.16015625 2.953125 1.7578125 C5.4523993 6.3197409 8.04605056 10.71200888 11 15 C11.60199219 15.91910156 12.20398438 16.83820313 12.82421875 17.78515625 C15.76246461 22.12658595 18.97154416 26.24051856 22.171875 30.390625 C24 33 24 33 24 35 C24.66 35 25.32 35 26 35 C27.30567127 36.49481057 28.54251025 38.049816 29.75 39.625 C40.0862249 52.54945569 52.27877865 63.89795969 65.875 73.30078125 C66.57625 73.86152344 67.2775 74.42226563 68 75 C68 75.66 68 76.32 68 77 C68.66 77.20625 69.32 77.4125 70 77.625 C74.11606263 79.51152871 77.4587703 82.20567979 81 85 C78 85 78 85 75 83 C74.01 83 73.02 83 72 83 C69.45235373 81.31747951 67.04493582 79.60173999 64.625 77.75 C63.55197632 76.93462769 63.55197632 76.93462769 62.45727539 76.1027832 C55.57419436 70.79638925 49.21859213 65.06218348 43 59 C42.38205566 58.40251953 41.76411133 57.80503906 41.12744141 57.18945312 C26.03771753 42.556536 6.96644726 23.39695376 0 3 C0 2.01 0 1.02 0 0 Z " fill="#FE4C4C" transform="translate(94,327)"/>
<path d="M0 0 C0 6.24952792 -3.86941967 10.25212669 -8.0859375 14.484375 C-8.58356598 14.98487366 -9.08119446 15.48537231 -9.59390259 16.0010376 C-10.64762246 17.05679006 -11.70510482 18.10879923 -12.76611328 19.15722656 C-14.34627703 20.7215647 -15.91007277 22.30093786 -17.47265625 23.8828125 C-31.32340575 37.76105526 -47.46466373 48.58213246 -64 59 C-64.91523437 59.58910156 -65.83046875 60.17820312 -66.7734375 60.78515625 C-69 62 -69 62 -71.3125 61.6875 C-71.869375 61.460625 -72.42625 61.23375 -73 61 C-70.59278353 58.17413719 -68.12747866 56.43136904 -64.890625 54.7109375 C-60.16563852 52.13008649 -55.66356347 49.30127941 -51.1875 46.3125 C-50.40777832 45.79212158 -49.62805664 45.27174316 -48.82470703 44.7355957 C-42.16561153 40.22776296 -36.03362391 35.32215524 -30 30 C-29.23042969 29.34 -28.46085938 28.68 -27.66796875 28 C-24.70537416 25.44964028 -21.83805214 22.87778309 -19.125 20.0625 C-17 18 -17 18 -15 18 C-15 17.34 -15 16.68 -15 16 C-14.34 16 -13.68 16 -13 16 C-12.78601563 15.46890625 -12.57203125 14.9378125 -12.3515625 14.390625 C-10.48655451 11.09182474 -7.95775758 8.49008292 -5.375 5.75 C-4.859375 5.19570313 -4.34375 4.64140625 -3.8125 4.0703125 C-2.54574965 2.7097288 -1.27342185 1.35434163 0 0 Z " fill="#FE5050" transform="translate(847,362)"/>
<path d="M0 0 C0.33 0 0.66 0 1 0 C1 17.82 1 35.64 1 54 C0.01 53.67 -0.98 53.34 -2 53 C-2.76254184 47.58724025 -3.1486496 42.31408907 -3.1328125 36.84375 C-3.13376923 36.0971814 -3.13472595 35.35061279 -3.13571167 34.5814209 C-3.13638715 33.01505447 -3.13457739 31.44868514 -3.13037109 29.88232422 C-3.1250138 27.50611998 -3.13033772 25.13010472 -3.13671875 22.75390625 C-3.13605786 21.22135376 -3.13477646 19.68880138 -3.1328125 18.15625 C-3.13483673 17.45705444 -3.13686096 16.75785889 -3.13894653 16.03747559 C-3.11666329 11.27071343 -2.66351978 6.70987032 -2 2 C-1.34 2 -0.68 2 0 2 C0 1.34 0 0.68 0 0 Z " fill="#FE5151" transform="translate(65,183)"/>
<path d="M0 0 C3.20438157 1.42020475 5.40405735 3.15548635 7.9375 5.5625 C14.42660083 11.4685535 21.71292245 16.1419483 29 21 C33.888032 20.66192286 38.15736439 18.88673058 42.625 17 C50.51364018 13.70789032 50.51364018 13.70789032 54 13 C53.236875 13.598125 52.47375 14.19625 51.6875 14.8125 C49.1296152 16.77490938 49.1296152 16.77490938 47.6953125 18.46875 C45.40850065 20.53425748 43.0243848 21.49921995 40.1875 22.6875 C39.17042969 23.12449219 38.15335938 23.56148438 37.10546875 24.01171875 C33.69401523 25.09737629 31.54994209 25.50973527 28 25 C25.49474667 23.51870785 23.34124275 22.07984174 21.0625 20.3125 C20.48048828 19.87744141 19.89847656 19.44238281 19.29882812 18.99414062 C18.12433138 18.11619456 16.95436796 17.2321506 15.7890625 16.34204102 C13.93140393 14.94854358 12.03555522 13.62231771 10.12890625 12.296875 C7.08936238 10.06559935 6.4610101 9.23509379 5 6 C3.34106818 4.65705519 1.67523395 3.32255312 0 2 C0 1.34 0 0.68 0 0 Z " fill="#FE4D4D" transform="translate(718,411)"/>
<path d="M0 0 C0.33 0.99 0.66 1.98 1 3 C1.66 3 2.32 3 3 3 C3.69571651 12.6779136 4.24784287 22.29102512 4 32 C3.98211426 32.7523291 3.96422852 33.5046582 3.94580078 34.27978516 C3.87858548 36.75007003 3.78665856 39.21830532 3.6875 41.6875 C3.66510254 42.47882324 3.64270508 43.27014648 3.61962891 44.08544922 C3.51171875 46.32421875 3.51171875 46.32421875 3 50 C2.01 50.66 1.02 51.32 0 52 C0 34.84 0 17.68 0 0 Z " fill="#FE5151" transform="translate(900,184)"/>
<path d="M0 0 C0.66 0.99 1.32 1.98 2 3 C-1.93052897 11.6328709 -6.50613075 19.61933233 -11.6875 27.5625 C-12.24590576 28.41875977 -12.80431152 29.27501953 -13.37963867 30.15722656 C-19.30066503 39.12423791 -19.30066503 39.12423791 -22 42 C-22.99 42 -23.98 42 -25 42 C-23.72350731 38.41959368 -22.25463881 35.83788911 -19.8125 32.9375 C-13.21093429 24.65826366 -8.47597522 15.15938963 -3.57641602 5.81201172 C-1.10020696 1.10020696 -1.10020696 1.10020696 0 0 Z " fill="#FE4F4F" transform="translate(877,315)"/>
<path d="M0 0 C3.909602 1.02884263 7.09094678 2.57793737 10.5 4.6875 C18.93456198 9.89370467 27.87092081 14.16045081 37 18 C33.17660695 19.27446435 31.72994863 18.34278151 28 17 C26.89785156 16.83371094 26.89785156 16.83371094 25.7734375 16.6640625 C22.04075563 15.77032177 18.85424575 14.05664325 15.5 12.25 C14.84902344 11.91484375 14.19804687 11.5796875 13.52734375 11.234375 C9.33620582 8.99910144 6.23740245 6.54404166 3 3 C2.401875 2.401875 1.80375 1.80375 1.1875 1.1875 C0.795625 0.795625 0.40375 0.40375 0 0 Z " fill="#FE4F4F" transform="translate(177,414)"/>
<path d="M0 0 C0.33 0.66 0.66 1.32 1 2 C1.66 2.33 2.32 2.66 3 3 C-1.02940236 18.70853308 -1.02940236 18.70853308 -4 26 C-4.5878125 27.485 -4.5878125 27.485 -5.1875 29 C-5.455625 29.66 -5.72375 30.32 -6 31 C-6.99 31 -7.98 31 -9 31 C-7.59215364 23.50919482 -5.13248076 16.32607466 -2.6953125 9.1171875 C-1.70495632 6.10160856 -0.84608444 3.05892067 0 0 Z " fill="#FE4A4A" transform="translate(895,264)"/>
<path d="M0 0 C0.66 0.33 1.32 0.66 2 1 C1.13375 1.72316406 1.13375 1.72316406 0.25 2.4609375 C-0.4925 3.09257812 -1.235 3.72421875 -2 4.375 C-2.7425 5.00148438 -3.485 5.62796875 -4.25 6.2734375 C-4.8275 6.84320313 -5.405 7.41296875 -6 8 C-6 8.66 -6 9.32 -6 10 C-11.35929788 14.56460995 -17.20709986 18.96212996 -24 21 C-26.9375 20.6875 -26.9375 20.6875 -29 20 C-29 19.67 -29 19.34 -29 19 C-28.11570313 18.731875 -27.23140625 18.46375 -26.3203125 18.1875 C-16.21628313 14.57382361 -7.99985579 6.93879289 0 0 Z " fill="#FE5252" transform="translate(243,414)"/>
<path d="M0 0 C1.30457818 3.91373453 0.37656943 5.7321875 -0.875 9.625 C-1.42800781 11.37683594 -1.42800781 11.37683594 -1.9921875 13.1640625 C-3 16 -3 16 -4 17 C-4.185625 18.5159375 -4.185625 18.5159375 -4.375 20.0625 C-5.0673251 24.42414815 -6.35218643 27.91628811 -8 32 C-10 29 -10 29 -9.86328125 26.65234375 C-8.57713438 20.31282547 -7.00198715 14.15277385 -5 8 C-4.34 8 -3.68 8 -3 8 C-2.01 5.36 -1.02 2.72 0 0 Z " fill="#FE5050" transform="translate(79,126)"/>
<path d="M0 0 C0.99 0.33 1.98 0.66 3 1 C3.42237886 4.43478314 3.80829229 7.87270459 4.1875 11.3125 C4.30802734 12.28896484 4.42855469 13.26542969 4.55273438 14.27148438 C4.65263672 15.20927734 4.75253906 16.14707031 4.85546875 17.11328125 C5.00471802 18.40939331 5.00471802 18.40939331 5.15698242 19.73168945 C5 22 5 22 3.5090332 23.80541992 C3.01105225 24.19963135 2.51307129 24.59384277 2 25 C1.2204542 22.19252545 0.8289851 19.57970192 0.68359375 16.671875 C0.64169922 15.87265625 0.59980469 15.0734375 0.55664062 14.25 C0.51732422 13.425 0.47800781 12.6 0.4375 11.75 C0.39431641 10.90953125 0.35113281 10.0690625 0.30664062 9.203125 C0.20091457 7.13559329 0.09998705 5.06781719 0 3 C-0.99 3 -1.98 3 -3 3 C-2.01 2.01 -1.02 1.02 0 0 Z " fill="#FE5252" transform="translate(147,26)"/>
<path d="M0 0 C3.58273331 1.65356922 6.80973467 3.67980703 10 6 C10 6.66 10 7.32 10 8 C10.66 8.20625 11.32 8.4125 12 8.625 C16.11606263 10.51152871 19.4587703 13.20567979 23 16 C20 16 20 16 17 14 C16.01 14 15.02 14 14 14 C11.95703125 12.7578125 11.95703125 12.7578125 9.8125 11.125 C9.09707031 10.59132813 8.38164062 10.05765625 7.64453125 9.5078125 C7.10183594 9.01023437 6.55914062 8.51265625 6 8 C6 7.34 6 6.68 6 6 C4.02043058 4.30911778 2.02054804 2.64169528 0 1 C0 0.67 0 0.34 0 0 Z " fill="#FE5151" transform="translate(152,396)"/>
<path d="M0 0 C0.66 0 1.32 0 2 0 C2 0.66 2 1.32 2 2 C2.66 2 3.32 2 4 2 C5.35135503 3.53270571 6.63253887 5.12776773 7.875 6.75 C10.41923797 10.05847675 12.98685999 13.10846654 16 16 C15.67 16.66 15.34 17.32 15 18 C14.236875 17.195625 13.47375 16.39125 12.6875 15.5625 C10.20569102 12.83200976 10.20569102 12.83200976 7 12 C5.54038617 10.36735356 4.15093248 8.67087977 2.8125 6.9375 C2.09707031 6.01839844 1.38164063 5.09929687 0.64453125 4.15234375 C-0.16951172 3.08693359 -0.16951172 3.08693359 -1 2 C-0.67 1.34 -0.34 0.68 0 0 Z " fill="#FE4B4B" transform="translate(688,380)"/>
<path d="M0 0 C3.68125564 0.83664901 5.54454383 1.34934832 7.75 4.5 C8.0490625 5.02078125 8.348125 5.5415625 8.65625 6.078125 C11.2391723 9.77230456 14.70223035 12.72756073 17.953125 15.828125 C20 18 20 18 20 20 C19.34 20 18.68 20 18 20 C16.66015625 18.6015625 16.66015625 18.6015625 15.0625 16.625 C11.15213995 11.98558978 6.72575485 8.07111391 2.16015625 4.1015625 C1.44730469 3.40804688 0.73445312 2.71453125 0 2 C0 1.34 0 0.68 0 0 Z " fill="#FD5B5B" transform="translate(818,28)"/>
<path d="M0 0 C0.99 0.33 1.98 0.66 3 1 C2.10802602 6.20318154 1.05219101 10.43407191 -3 14 C-3.556875 14.556875 -4.11375 15.11375 -4.6875 15.6875 C-5.120625 16.120625 -5.55375 16.55375 -6 17 C-5.19534869 13.26345828 -3.82425115 9.80577218 -2.4375 6.25 C-1.98246094 5.07953125 -1.52742187 3.9090625 -1.05859375 2.703125 C-0.53458984 1.36507813 -0.53458984 1.36507813 0 0 Z " fill="#FE4F4F" transform="translate(884,297)"/>
<path d="M0 0 C0.66 0.33 1.32 0.66 2 1 C-1.18483911 3.63886669 -4.2898821 6.14494105 -8 8 C-8.99 7.67 -9.98 7.34 -11 7 C-9.21475351 5.80286983 -7.4215972 4.61752721 -5.625 3.4375 C-4.62726562 2.77621094 -3.62953125 2.11492187 -2.6015625 1.43359375 C-1.74304688 0.96050781 -0.88453125 0.48742187 0 0 Z M-11 8 C-11 8.66 -11 9.32 -11 10 C-15.15267176 13.11450382 -15.15267176 13.11450382 -18.3125 12.6875 C-18.869375 12.460625 -19.42625 12.23375 -20 12 C-13.25 8 -13.25 8 -11 8 Z M-22 13 C-21.01 13.495 -21.01 13.495 -20 14 C-20.99 14.495 -20.99 14.495 -22 15 C-22 14.34 -22 13.68 -22 13 Z " fill="#FE3535" transform="translate(711,219)"/>
<path d="M0 0 C4.39750672 0.50740462 6.86948922 3.08293314 10 6 C10 6.66 10 7.32 10 8 C10.5775 8.226875 11.155 8.45375 11.75 8.6875 C14.5663661 10.33038023 16.08077114 12.39533227 18 15 C13.48839312 13.58206641 11.23872117 11.38935936 8 8 C5.87764497 6.12710087 3.73062025 4.28666417 1.57421875 2.453125 C1.05472656 1.97359375 0.53523437 1.4940625 0 1 C0 0.67 0 0.34 0 0 Z " fill="#FE3737" transform="translate(708,405)"/>
<path d="M0 0 C-9.375 6.25 -9.375 6.25 -16 7 C-16 6.34 -16 5.68 -16 5 C-13.90163996 3.96728358 -11.79609109 2.94916283 -9.6875 1.9375 C-8.51574219 1.36902344 -7.34398437 0.80054688 -6.13671875 0.21484375 C-3 -1 -3 -1 0 0 Z " fill="#FD5656" transform="translate(772,425)"/>
<path d="M0 0 C4.54071365 1.46583335 7.76266969 4.04531733 11.3125 7.125 C12.13717773 7.82689453 12.13717773 7.82689453 12.97851562 8.54296875 C14.32396409 9.68952483 15.662679 10.84397451 17 12 C16.01 12.495 16.01 12.495 15 13 C4.30390492 4.75212224 4.30390492 4.75212224 0 1 C0 0.67 0 0.34 0 0 Z " fill="#FE4646" transform="translate(142,390)"/>
<path d="M0 0 C0 3.39593478 -0.52165948 4.06619881 -2.5 6.6875 C-2.9640625 7.31011719 -3.428125 7.93273437 -3.90625 8.57421875 C-4.2671875 9.04472656 -4.628125 9.51523438 -5 10 C-5.99 9.34 -6.98 8.68 -8 8 C-7.23883449 6.84772177 -6.46567307 5.7033614 -5.6875 4.5625 C-5.25824219 3.92441406 -4.82898438 3.28632812 -4.38671875 2.62890625 C-3 1 -3 1 0 0 Z " fill="#FE5A5A" transform="translate(113,64)"/>
<path d="M0 0 C0.66 0 1.32 0 2 0 C1.58525633 5.28798182 0.64775386 8.11690718 -3 12 C-3.88336837 9.5332355 -4.1312406 8.36140628 -3.22265625 5.859375 C-2.83980469 5.16328125 -2.45695312 4.4671875 -2.0625 3.75 C-1.68222656 3.04359375 -1.30195313 2.3371875 -0.91015625 1.609375 C-0.60980469 1.07828125 -0.30945313 0.5471875 0 0 Z " fill="#FE4C4C" transform="translate(302,339)"/>
<path d="M0 0 C3.58513106 1.62184501 6.58992323 3.79256239 9.75 6.125 C11.22726563 7.21167969 11.22726563 7.21167969 12.734375 8.3203125 C13.48203125 8.87460938 14.2296875 9.42890625 15 10 C14.01 10.33 13.02 10.66 12 11 C9.58984375 9.453125 9.58984375 9.453125 6.9375 7.25 C6.05964844 6.53328125 5.18179688 5.8165625 4.27734375 5.078125 C2 3 2 3 0 0 Z " fill="#FF3535" transform="translate(235,205)"/>
<path d="M0 0 C0 3 0 3 -1.35546875 4.5703125 C-7.42718924 9.72285995 -7.42718924 9.72285995 -12 10 C-8.40945767 6.11024581 -4.26101118 3.10267805 0 0 Z " fill="#FE3535" transform="translate(728,206)"/>
<path d="M0 0 C0.99 0 1.98 0 3 0 C3.07654536 4.51617599 3.10228696 8.59085217 2 13 C1.67 13 1.34 13 1 13 C0.67 8.71 0.34 4.42 0 0 Z " fill="#FE5454" transform="translate(815,37)"/>
<path d="M0 0 C0.33 1.32 0.66 2.64 1 4 C1.66 4 2.32 4 3 4 C3.33 5.98 3.66 7.96 4 10 C3.01 10.33 2.02 10.66 1 11 C0 10 0 10 -0.09765625 7.71484375 C-0.08605469 6.79832031 -0.07445312 5.88179687 -0.0625 4.9375 C-0.05347656 4.01839844 -0.04445312 3.09929688 -0.03515625 2.15234375 C-0.02355469 1.44207031 -0.01195312 0.73179688 0 0 Z " fill="#FE5454" transform="translate(150,53)"/>
<path d="M0 0 C0.33 0 0.66 0 1 0 C1 3.3 1 6.6 1 10 C0.01 10 -0.98 10 -2 10 C-3.35715268 7.28569464 -2.77445827 5.88661718 -2 3 C-1.34 2.01 -0.68 1.02 0 0 Z " fill="#FE5454" transform="translate(815,53)"/>
<path d="M0 0 C0.33 0.66 0.66 1.32 1 2 C1.66 2.33 2.32 2.66 3 3 C2.01 3.33 1.02 3.66 0 4 C-0.12375 5.27875 -0.2475 6.5575 -0.375 7.875 C-0.75 11.75 -0.75 11.75 -3 14 C-2.40380045 9.13103697 -1.43023178 4.67209049 0 0 Z " fill="#FD5757" transform="translate(895,264)"/>
<path d="M0 0 C4.38889325 0.66498383 7.9811485 2.18757677 12 4 C8.19670633 5.26776456 6.68257359 4.3809651 3 3 C2.01 2.67 1.02 2.34 0 2 C0 1.34 0 0.68 0 0 Z " fill="#FD5858" transform="translate(202,428)"/>
<path d="M0 0 C0.33 0 0.66 0 1 0 C1 3.63 1 7.26 1 11 C-0.32 11 -1.64 11 -3 11 C-3 10.34 -3 9.68 -3 9 C-2.34 9 -1.68 9 -1 9 C-0.67 6.03 -0.34 3.06 0 0 Z " fill="#FE5656" transform="translate(67,169)"/>
<path d="M0 0 C0.33 0.66 0.66 1.32 1 2 C1.66 2 2.32 2 3 2 C2.67 4.97 2.34 7.94 2 11 C1.34 10.67 0.68 10.34 0 10 C0 6.7 0 3.4 0 0 Z " fill="#FE5252" transform="translate(898,170)"/>
<path d="M0 0 C0.66 0.33 1.32 0.66 2 1 C2 4.3 2 7.6 2 11 C0 7 0 7 0 3 C-0.66 2.67 -1.32 2.34 -2 2 C-1.34 2 -0.68 2 0 2 C0 1.34 0 0.68 0 0 Z " fill="#FD5757" transform="translate(66,241)"/>
<path d="M0 0 C1.98 0.99 1.98 0.99 4 2 C4 4.64 4 7.28 4 10 C3.34 9.67 2.68 9.34 2 9 C1.3671875 6.93359375 1.3671875 6.93359375 0.875 4.4375 C0.70742187 3.61121094 0.53984375 2.78492187 0.3671875 1.93359375 C0.24601563 1.29550781 0.12484375 0.65742187 0 0 Z " fill="#FE5151" transform="translate(158,92)"/>
<path d="M0 0 C0.66 0 1.32 0 2 0 C1.8125 2.875 1.8125 2.875 1 6 C-1.5625 7.375 -1.5625 7.375 -4 8 C-2.87548273 5.0280615 -1.77706209 2.66559313 0 0 Z " fill="#FE4E4E" transform="translate(284,369)"/>
<path d="M0 0 C3.36591866 1.44253657 5.51047079 3.33264727 8 6 C7.67 6.66 7.34 7.32 7 8 C4.35247996 5.42215154 2.05567935 3.08351902 0 0 Z " fill="#FE3838" transform="translate(696,392)"/>
<path d="M0 0 C0.33 0.99 0.66 1.98 1 3 C-0.96466413 4.06775224 -2.96855359 5.06553465 -5 6 C-5.66 5.67 -6.32 5.34 -7 5 C-5.49336217 1.98672434 -2.96833589 1.38943382 0 0 Z " fill="#FE3939" transform="translate(687,233)"/>
</svg>
